<?xml version="1.0" encoding="UTF-8" standalone="no"?>
<!-- Created with Inkscape (http://www.inkscape.org/) -->
<svg
   xmlns:svg="http://www.w3.org/2000/svg"
   xmlns="http://www.w3.org/2000/svg"
   version="1.0"
   width="903.54327"
   height="400.39368"
   id="svg75605">
  <defs
     id="defs75607" />
  <g
     transform="translate(-1583.07,835.2682)"
     id="layer1">
    <g
       transform="translate(8.857937,8.363228)"
       id="g85136">
      <path
         d="M 1583.0703,-451.601 L 2468.8971,-451.601 L 2468.8971,-835.26818 L 1583.0703,-835.26818 L 1583.0703,-451.601 z "
         style="fill:white;fill-rule:nonzero;stroke:none"
         id="path84955" />
      <path
         d="M 2419.4864,-560.54917 L 2419.4864,-594.70473 L 2394.1231,-594.70473 C 2383.3207,-594.70473 2367.2568,-594.70473 2361.1513,-594.41351 L 2418.3591,-679.06961 L 2418.3591,-705.63505 L 2316.7188,-705.63505 L 2316.7188,-672.35314 L 2342.4579,-672.35314 C 2356.4543,-672.35314 2367.8204,-672.64435 2373.3629,-672.93549 L 2315.0279,-587.11461 L 2315.0279,-560.54917 L 2419.4864,-560.54917"
         style="fill:#f5821f;fill-rule:nonzero;stroke:none"
         id="path84957" />
      <path
         d="M 2010.6721,-745.04161 L 2010.6721,-560.54917 L 2048.059,-560.54917 L 2048.059,-630.60745 C 2048.059,-656.00809 2062.6191,-677.6136 2081.5945,-677.6136 C 2095.5909,-677.6136 2099.7243,-668.55807 2099.7243,-653.37782 L 2099.7243,-560.54917 L 2136.7355,-560.54917 L 2136.7355,-662.43335 C 2136.7355,-687.82453 2126.2149,-708.84768 2093.5242,-708.84768 C 2070.792,-708.84768 2054.1645,-698.04492 2045.7105,-681.69988 L 2045.4287,-681.99102 C 2047.4015,-690.4548 2048.059,-702.71356 2048.059,-711.46848 L 2048.059,-773.9461 C 2026.4534,-774.52846 2003.9083,-773.65489 1985.2148,-771.31583 L 1985.2148,-747.9631 C 1993.6695,-747.38066 2003.6265,-746.21587 2010.6721,-745.04161"
         style="fill:#f5821f;fill-rule:nonzero;stroke:none"
         id="path84959" />
      <path
         d="M 2205.5912,-774.36876 C 2183.9855,-774.9512 2161.5352,-774.06815 2142.8417,-771.73857 L 2142.8417,-748.38576 C 2151.2956,-747.8034 2161.2533,-746.62914 2168.2042,-745.46435 L 2168.2042,-565.04879 C 2184.925,-560.38015 2201.2699,-558.04109 2222.3119,-558.04109 C 2272.1931,-558.04109 2300.7496,-591.90537 2300.7496,-640.94997 C 2300.7496,-683.86977 2282.15,-708.9698 2247.3934,-708.9698 C 2226.915,-708.9698 2210.8519,-699.05002 2203.6184,-683.27801 L 2203.2427,-683.27801 C 2204.7457,-690.86814 2205.5912,-702.84508 2205.5912,-711.6 L 2205.5912,-774.36876 z M 2261.3899,-637.1549 C 2261.3899,-601.25211 2246.1722,-587.81916 2224.8483,-587.81916 C 2217.052,-587.81916 2210.8519,-588.70213 2205.5912,-590.44936 L 2205.5912,-631.3214 C 2205.5912,-655.54778 2217.3338,-678.02694 2236.591,-678.02694 C 2253.4996,-678.02694 2261.3899,-664.31209 2261.3899,-637.1549"
         style="fill:#f5821f;fill-rule:evenodd;stroke:none"
         id="path84961" />
      <path
         d="M 1815.3764,-611.28463 L 1815.3764,-751.26027 L 1649.3896,-751.26027 L 1649.3896,-778.31413 L 1870.1417,-778.31413 L 1870.1417,-611.28463 L 1815.3764,-611.28463"
         style="fill:#16497b;fill-rule:nonzero;stroke:none"
         id="path84963" />
      <path
         d="M 1684.2409,-603.52541 L 1877.9388,-603.52541 L 1877.9388,-778.25777 L 1911.2863,-778.25777 L 1911.2863,-560.64311 L 1684.2409,-560.64311 L 1684.2409,-603.52541"
         style="fill:#16497b;fill-rule:nonzero;stroke:none"
         id="path84965" />
      <path
         d="M 1676.4438,-743.50106 L 1676.4438,-552.88396 L 1870.1417,-552.88396 L 1870.1417,-508.97771 L 1649.3896,-508.97771 L 1649.3896,-743.50106 L 1676.4438,-743.50106"
         style="fill:#16497b;fill-rule:nonzero;stroke:none"
         id="path84967" />
      <path
         d="M 1870.1417,-786.08274 L 1641.5932,-786.08274 L 1641.5932,-560.64311 L 1586.8279,-560.64311 L 1586.8279,-803.59258 L 1870.1417,-803.60197 L 1870.1417,-786.08274"
         style="fill:#16497b;fill-rule:nonzero;stroke:none"
         id="path84969" />
    </g>
  </g>
</svg>
